<mxfile host="app.diagrams.net" agent="Mozilla/5.0 (Windows NT 10.0; Win64; x64) AppleWebKit/537.36 (KHTML, like Gecko) Chrome/138.0.0.0 Safari/537.36" version="28.1.0">
  <diagram id="oH6Iyls2QKhmLDoRFX1L" name="PaginÄƒ-1">
    <mxGraphModel dx="1281" dy="1731" grid="1" gridSize="10" guides="1" tooltips="1" connect="1" arrows="1" fold="1" page="1" pageScale="1" pageWidth="827" pageHeight="1169" math="0" shadow="0">
      <root>
        <mxCell id="0" />
        <mxCell id="1" parent="0" />
        <mxCell id="Ux1uXaIulqPXLvxL6gqE-86" value="&amp;laquo;Annotation&amp;raquo;&lt;br/&gt;&lt;b&gt;Component&lt;/b&gt;" style="html=1;dropTarget=0;whiteSpace=wrap;fillColor=#FFFFFF;" vertex="1" parent="1">
          <mxGeometry x="40" y="-20" width="640" height="980" as="geometry" />
        </mxCell>
        <mxCell id="Ux1uXaIulqPXLvxL6gqE-2" value="&lt;font face=&quot;Comic Sans MS&quot; style=&quot;font-size: 14px;&quot;&gt;Presentation&lt;/font&gt;" style="shape=module;align=left;spacingLeft=20;align=center;verticalAlign=top;whiteSpace=wrap;html=1;" vertex="1" parent="1">
          <mxGeometry x="70" y="40" width="570" height="240" as="geometry" />
        </mxCell>
        <mxCell id="Ux1uXaIulqPXLvxL6gqE-3" value="&lt;font face=&quot;Comic Sans MS&quot; style=&quot;font-size: 14px;&quot;&gt;Business&lt;/font&gt;" style="shape=module;align=left;spacingLeft=20;align=center;verticalAlign=top;whiteSpace=wrap;html=1;" vertex="1" parent="1">
          <mxGeometry x="70" y="360" width="570" height="240" as="geometry" />
        </mxCell>
        <mxCell id="Ux1uXaIulqPXLvxL6gqE-4" value="&lt;font face=&quot;Comic Sans MS&quot; style=&quot;font-size: 14px;&quot;&gt;Persistence&lt;/font&gt;" style="shape=module;align=left;spacingLeft=20;align=center;verticalAlign=top;whiteSpace=wrap;html=1;" vertex="1" parent="1">
          <mxGeometry x="70" y="680" width="570" height="240" as="geometry" />
        </mxCell>
        <mxCell id="Ux1uXaIulqPXLvxL6gqE-7" value="&lt;font face=&quot;Comic Sans MS&quot;&gt;Controller&lt;/font&gt;" style="shape=folder;fontStyle=1;spacingTop=10;tabWidth=40;tabHeight=14;tabPosition=left;html=1;whiteSpace=wrap;fillColor=#FFFFCC;" vertex="1" parent="1">
          <mxGeometry x="110" y="90" width="70" height="50" as="geometry" />
        </mxCell>
        <mxCell id="Ux1uXaIulqPXLvxL6gqE-8" value="&lt;font face=&quot;Comic Sans MS&quot;&gt;PAL&lt;/font&gt;" style="shape=folder;fontStyle=1;spacingTop=10;tabWidth=40;tabHeight=14;tabPosition=left;html=1;whiteSpace=wrap;fillColor=#FFFFCC;" vertex="1" parent="1">
          <mxGeometry x="110" y="190" width="70" height="50" as="geometry" />
        </mxCell>
        <mxCell id="Ux1uXaIulqPXLvxL6gqE-9" value="&lt;font face=&quot;Comic Sans MS&quot;&gt;PAO&lt;/font&gt;&lt;div&gt;&lt;font face=&quot;Comic Sans MS&quot;&gt;&lt;br&gt;&lt;/font&gt;&lt;/div&gt;&lt;div&gt;&lt;font face=&quot;Comic Sans MS&quot;&gt;&lt;br&gt;&lt;/font&gt;&lt;/div&gt;&lt;div&gt;&lt;font face=&quot;Comic Sans MS&quot;&gt;&lt;br&gt;&lt;/font&gt;&lt;/div&gt;&lt;div&gt;&lt;font face=&quot;Comic Sans MS&quot;&gt;&lt;br&gt;&lt;/font&gt;&lt;/div&gt;" style="shape=folder;fontStyle=1;spacingTop=10;tabWidth=40;tabHeight=14;tabPosition=left;html=1;whiteSpace=wrap;" vertex="1" parent="1">
          <mxGeometry x="330" y="120" width="280" height="120" as="geometry" />
        </mxCell>
        <mxCell id="Ux1uXaIulqPXLvxL6gqE-10" value="&lt;font face=&quot;Comic Sans MS&quot;&gt;Interfaces&lt;/font&gt;" style="shape=folder;fontStyle=1;spacingTop=10;tabWidth=40;tabHeight=14;tabPosition=left;html=1;whiteSpace=wrap;fillColor=#FFFFCC;" vertex="1" parent="1">
          <mxGeometry x="357" y="170" width="70" height="50" as="geometry" />
        </mxCell>
        <mxCell id="Ux1uXaIulqPXLvxL6gqE-11" value="&lt;font face=&quot;Comic Sans MS&quot;&gt;Services&lt;/font&gt;" style="shape=folder;fontStyle=1;spacingTop=10;tabWidth=40;tabHeight=14;tabPosition=left;html=1;whiteSpace=wrap;fillColor=#FFFFCC;" vertex="1" parent="1">
          <mxGeometry x="513" y="170" width="70" height="50" as="geometry" />
        </mxCell>
        <mxCell id="Ux1uXaIulqPXLvxL6gqE-12" value="&lt;font face=&quot;Comic Sans MS&quot;&gt;BAL&lt;/font&gt;" style="shape=folder;fontStyle=1;spacingTop=10;tabWidth=40;tabHeight=14;tabPosition=left;html=1;whiteSpace=wrap;fillColor=#FFFFCC;" vertex="1" parent="1">
          <mxGeometry x="110" y="420" width="70" height="50" as="geometry" />
        </mxCell>
        <mxCell id="Ux1uXaIulqPXLvxL6gqE-13" value="&lt;font face=&quot;Comic Sans MS&quot;&gt;BTO&lt;/font&gt;" style="shape=folder;fontStyle=1;spacingTop=10;tabWidth=40;tabHeight=14;tabPosition=left;html=1;whiteSpace=wrap;fillColor=#FFFFCC;" vertex="1" parent="1">
          <mxGeometry x="230" y="420" width="70" height="50" as="geometry" />
        </mxCell>
        <mxCell id="Ux1uXaIulqPXLvxL6gqE-14" value="&lt;font face=&quot;Comic Sans MS&quot;&gt;BAO&lt;/font&gt;&lt;div&gt;&lt;font face=&quot;Comic Sans MS&quot;&gt;&lt;br&gt;&lt;/font&gt;&lt;/div&gt;&lt;div&gt;&lt;font face=&quot;Comic Sans MS&quot;&gt;&lt;br&gt;&lt;/font&gt;&lt;/div&gt;&lt;div&gt;&lt;font face=&quot;Comic Sans MS&quot;&gt;&lt;br&gt;&lt;/font&gt;&lt;/div&gt;&lt;div&gt;&lt;font face=&quot;Comic Sans MS&quot;&gt;&lt;br&gt;&lt;/font&gt;&lt;/div&gt;" style="shape=folder;fontStyle=1;spacingTop=10;tabWidth=40;tabHeight=14;tabPosition=left;html=1;whiteSpace=wrap;" vertex="1" parent="1">
          <mxGeometry x="330" y="450" width="280" height="120" as="geometry" />
        </mxCell>
        <mxCell id="Ux1uXaIulqPXLvxL6gqE-15" value="&lt;font face=&quot;Comic Sans MS&quot;&gt;Interfaces&lt;/font&gt;" style="shape=folder;fontStyle=1;spacingTop=10;tabWidth=40;tabHeight=14;tabPosition=left;html=1;whiteSpace=wrap;fillColor=#FFFFCC;" vertex="1" parent="1">
          <mxGeometry x="354" y="500" width="70" height="50" as="geometry" />
        </mxCell>
        <mxCell id="Ux1uXaIulqPXLvxL6gqE-16" value="&lt;font face=&quot;Comic Sans MS&quot;&gt;Services&lt;/font&gt;" style="shape=folder;fontStyle=1;spacingTop=10;tabWidth=40;tabHeight=14;tabPosition=left;html=1;whiteSpace=wrap;fillColor=#FFFFCC;" vertex="1" parent="1">
          <mxGeometry x="510" y="500" width="70" height="50" as="geometry" />
        </mxCell>
        <mxCell id="Ux1uXaIulqPXLvxL6gqE-38" style="edgeStyle=orthogonalEdgeStyle;rounded=0;orthogonalLoop=1;jettySize=auto;html=1;" edge="1" parent="1" source="Ux1uXaIulqPXLvxL6gqE-17" target="Ux1uXaIulqPXLvxL6gqE-13">
          <mxGeometry relative="1" as="geometry" />
        </mxCell>
        <mxCell id="Ux1uXaIulqPXLvxL6gqE-53" value="map" style="edgeLabel;html=1;align=center;verticalAlign=middle;resizable=0;points=[];" vertex="1" connectable="0" parent="Ux1uXaIulqPXLvxL6gqE-38">
          <mxGeometry x="-0.264" y="-1" relative="1" as="geometry">
            <mxPoint x="8" as="offset" />
          </mxGeometry>
        </mxCell>
        <mxCell id="Ux1uXaIulqPXLvxL6gqE-17" value="&lt;font face=&quot;Comic Sans MS&quot;&gt;Mapper&lt;/font&gt;" style="shape=folder;fontStyle=1;spacingTop=10;tabWidth=40;tabHeight=14;tabPosition=left;html=1;whiteSpace=wrap;fillColor=#FFFFCC;" vertex="1" parent="1">
          <mxGeometry x="170" y="510" width="70" height="50" as="geometry" />
        </mxCell>
        <mxCell id="Ux1uXaIulqPXLvxL6gqE-22" value="&lt;font face=&quot;Comic Sans MS&quot;&gt;DAL&lt;/font&gt;" style="shape=folder;fontStyle=1;spacingTop=10;tabWidth=40;tabHeight=14;tabPosition=left;html=1;whiteSpace=wrap;fillColor=#FFFFCC;" vertex="1" parent="1">
          <mxGeometry x="110" y="740" width="70" height="50" as="geometry" />
        </mxCell>
        <mxCell id="Ux1uXaIulqPXLvxL6gqE-23" value="&lt;font face=&quot;Comic Sans MS&quot;&gt;DTO&lt;/font&gt;" style="shape=folder;fontStyle=1;spacingTop=10;tabWidth=40;tabHeight=14;tabPosition=left;html=1;whiteSpace=wrap;fillColor=#FFFFCC;" vertex="1" parent="1">
          <mxGeometry x="230" y="740" width="70" height="50" as="geometry" />
        </mxCell>
        <mxCell id="Ux1uXaIulqPXLvxL6gqE-62" style="edgeStyle=orthogonalEdgeStyle;rounded=0;orthogonalLoop=1;jettySize=auto;html=1;exitX=0.018;exitY=0.712;exitDx=0;exitDy=0;exitPerimeter=0;" edge="1" parent="1" source="Ux1uXaIulqPXLvxL6gqE-24" target="Ux1uXaIulqPXLvxL6gqE-27">
          <mxGeometry relative="1" as="geometry" />
        </mxCell>
        <mxCell id="Ux1uXaIulqPXLvxL6gqE-63" value="use" style="edgeLabel;html=1;align=center;verticalAlign=middle;resizable=0;points=[];" vertex="1" connectable="0" parent="Ux1uXaIulqPXLvxL6gqE-62">
          <mxGeometry x="0.5327" y="2" relative="1" as="geometry">
            <mxPoint x="5" y="-13" as="offset" />
          </mxGeometry>
        </mxCell>
        <mxCell id="Ux1uXaIulqPXLvxL6gqE-24" value="&lt;div&gt;&lt;font face=&quot;Comic Sans MS&quot;&gt;DAO&lt;/font&gt;&lt;/div&gt;&lt;div&gt;&lt;font face=&quot;Comic Sans MS&quot;&gt;&lt;br&gt;&lt;/font&gt;&lt;/div&gt;&lt;div&gt;&lt;font face=&quot;Comic Sans MS&quot;&gt;&lt;br&gt;&lt;/font&gt;&lt;/div&gt;&lt;div&gt;&lt;font face=&quot;Comic Sans MS&quot;&gt;&lt;br&gt;&lt;/font&gt;&lt;/div&gt;&lt;div&gt;&lt;br&gt;&lt;/div&gt;" style="shape=folder;fontStyle=1;spacingTop=10;tabWidth=40;tabHeight=14;tabPosition=left;html=1;whiteSpace=wrap;" vertex="1" parent="1">
          <mxGeometry x="330" y="770" width="280" height="120" as="geometry" />
        </mxCell>
        <mxCell id="Ux1uXaIulqPXLvxL6gqE-25" value="&lt;font face=&quot;Comic Sans MS&quot;&gt;Interfaces&lt;/font&gt;" style="shape=folder;fontStyle=1;spacingTop=10;tabWidth=40;tabHeight=14;tabPosition=left;html=1;whiteSpace=wrap;fillColor=#FFFFCC;" vertex="1" parent="1">
          <mxGeometry x="354" y="820" width="70" height="50" as="geometry" />
        </mxCell>
        <mxCell id="Ux1uXaIulqPXLvxL6gqE-26" value="&lt;font face=&quot;Comic Sans MS&quot;&gt;Repositories&lt;/font&gt;" style="shape=folder;fontStyle=1;spacingTop=10;tabWidth=40;tabHeight=14;tabPosition=left;html=1;whiteSpace=wrap;fillColor=#FFFFCC;" vertex="1" parent="1">
          <mxGeometry x="500" y="820" width="80" height="50" as="geometry" />
        </mxCell>
        <mxCell id="Ux1uXaIulqPXLvxL6gqE-29" style="edgeStyle=orthogonalEdgeStyle;rounded=0;orthogonalLoop=1;jettySize=auto;html=1;" edge="1" parent="1" source="Ux1uXaIulqPXLvxL6gqE-27" target="Ux1uXaIulqPXLvxL6gqE-28">
          <mxGeometry relative="1" as="geometry" />
        </mxCell>
        <mxCell id="Ux1uXaIulqPXLvxL6gqE-56" value="map" style="edgeLabel;html=1;align=center;verticalAlign=middle;resizable=0;points=[];" vertex="1" connectable="0" parent="Ux1uXaIulqPXLvxL6gqE-29">
          <mxGeometry x="0.208" y="-1" relative="1" as="geometry">
            <mxPoint x="5" y="1" as="offset" />
          </mxGeometry>
        </mxCell>
        <mxCell id="Ux1uXaIulqPXLvxL6gqE-27" value="&lt;font face=&quot;Comic Sans MS&quot;&gt;Mapper&lt;/font&gt;" style="shape=folder;fontStyle=1;spacingTop=10;tabWidth=40;tabHeight=14;tabPosition=left;html=1;whiteSpace=wrap;fillColor=#FFFFCC;" vertex="1" parent="1">
          <mxGeometry x="230" y="830" width="70" height="50" as="geometry" />
        </mxCell>
        <mxCell id="Ux1uXaIulqPXLvxL6gqE-28" value="&lt;font face=&quot;Comic Sans MS&quot;&gt;Entities&lt;/font&gt;" style="shape=folder;fontStyle=1;spacingTop=10;tabWidth=40;tabHeight=14;tabPosition=left;html=1;whiteSpace=wrap;fillColor=#FFFFCC;" vertex="1" parent="1">
          <mxGeometry x="110" y="830" width="70" height="50" as="geometry" />
        </mxCell>
        <mxCell id="Ux1uXaIulqPXLvxL6gqE-30" style="edgeStyle=orthogonalEdgeStyle;rounded=0;orthogonalLoop=1;jettySize=auto;html=1;entryX=0.5;entryY=1;entryDx=0;entryDy=0;entryPerimeter=0;" edge="1" parent="1" source="Ux1uXaIulqPXLvxL6gqE-27" target="Ux1uXaIulqPXLvxL6gqE-23">
          <mxGeometry relative="1" as="geometry" />
        </mxCell>
        <mxCell id="Ux1uXaIulqPXLvxL6gqE-57" value="map" style="edgeLabel;html=1;align=center;verticalAlign=middle;resizable=0;points=[];" vertex="1" connectable="0" parent="Ux1uXaIulqPXLvxL6gqE-30">
          <mxGeometry x="-0.08" y="-2" relative="1" as="geometry">
            <mxPoint as="offset" />
          </mxGeometry>
        </mxCell>
        <mxCell id="Ux1uXaIulqPXLvxL6gqE-32" style="edgeStyle=orthogonalEdgeStyle;rounded=0;orthogonalLoop=1;jettySize=auto;html=1;entryX=0;entryY=0;entryDx=160;entryDy=14;entryPerimeter=0;" edge="1" parent="1" source="Ux1uXaIulqPXLvxL6gqE-22" target="Ux1uXaIulqPXLvxL6gqE-24">
          <mxGeometry relative="1" as="geometry">
            <Array as="points">
              <mxPoint x="145" y="720" />
              <mxPoint x="490" y="720" />
            </Array>
          </mxGeometry>
        </mxCell>
        <mxCell id="Ux1uXaIulqPXLvxL6gqE-54" value="use" style="edgeLabel;html=1;align=center;verticalAlign=middle;resizable=0;points=[];" vertex="1" connectable="0" parent="Ux1uXaIulqPXLvxL6gqE-32">
          <mxGeometry x="-0.1618" y="2" relative="1" as="geometry">
            <mxPoint as="offset" />
          </mxGeometry>
        </mxCell>
        <mxCell id="Ux1uXaIulqPXLvxL6gqE-34" value="" style="endArrow=block;dashed=1;endFill=0;endSize=12;html=1;rounded=0;entryX=0;entryY=0;entryDx=70;entryDy=32;entryPerimeter=0;exitX=0;exitY=0;exitDx=0;exitDy=32;exitPerimeter=0;" edge="1" parent="1" source="Ux1uXaIulqPXLvxL6gqE-26" target="Ux1uXaIulqPXLvxL6gqE-25">
          <mxGeometry width="160" relative="1" as="geometry">
            <mxPoint x="500" y="854.5" as="sourcePoint" />
            <mxPoint x="660" y="854.5" as="targetPoint" />
          </mxGeometry>
        </mxCell>
        <mxCell id="Ux1uXaIulqPXLvxL6gqE-55" value="implement" style="edgeLabel;html=1;align=center;verticalAlign=middle;resizable=0;points=[];" vertex="1" connectable="0" parent="Ux1uXaIulqPXLvxL6gqE-34">
          <mxGeometry x="0.0579" y="-2" relative="1" as="geometry">
            <mxPoint x="10" as="offset" />
          </mxGeometry>
        </mxCell>
        <mxCell id="Ux1uXaIulqPXLvxL6gqE-35" style="edgeStyle=orthogonalEdgeStyle;rounded=0;orthogonalLoop=1;jettySize=auto;html=1;entryX=0;entryY=0;entryDx=70;entryDy=32;entryPerimeter=0;exitX=0;exitY=0;exitDx=0;exitDy=93.5;exitPerimeter=0;" edge="1" parent="1" source="Ux1uXaIulqPXLvxL6gqE-14" target="Ux1uXaIulqPXLvxL6gqE-17">
          <mxGeometry relative="1" as="geometry">
            <Array as="points">
              <mxPoint x="330" y="542" />
            </Array>
          </mxGeometry>
        </mxCell>
        <mxCell id="Ux1uXaIulqPXLvxL6gqE-52" value="use" style="edgeLabel;html=1;align=center;verticalAlign=middle;resizable=0;points=[];" vertex="1" connectable="0" parent="Ux1uXaIulqPXLvxL6gqE-35">
          <mxGeometry x="0.0863" y="-2" relative="1" as="geometry">
            <mxPoint as="offset" />
          </mxGeometry>
        </mxCell>
        <mxCell id="Ux1uXaIulqPXLvxL6gqE-36" value="" style="endArrow=block;dashed=1;endFill=0;endSize=12;html=1;rounded=0;entryX=0;entryY=0;entryDx=70;entryDy=32;entryPerimeter=0;" edge="1" parent="1" target="Ux1uXaIulqPXLvxL6gqE-15">
          <mxGeometry width="160" relative="1" as="geometry">
            <mxPoint x="510" y="532" as="sourcePoint" />
            <mxPoint x="450" y="850" as="targetPoint" />
            <Array as="points" />
          </mxGeometry>
        </mxCell>
        <mxCell id="Ux1uXaIulqPXLvxL6gqE-50" value="&lt;font face=&quot;Comic Sans MS&quot;&gt;implement&lt;/font&gt;" style="edgeLabel;html=1;align=center;verticalAlign=middle;resizable=0;points=[];" vertex="1" connectable="0" parent="Ux1uXaIulqPXLvxL6gqE-36">
          <mxGeometry x="-0.2047" y="2" relative="1" as="geometry">
            <mxPoint as="offset" />
          </mxGeometry>
        </mxCell>
        <mxCell id="Ux1uXaIulqPXLvxL6gqE-37" style="edgeStyle=orthogonalEdgeStyle;rounded=0;orthogonalLoop=1;jettySize=auto;html=1;entryX=0;entryY=0;entryDx=160;entryDy=14;entryPerimeter=0;" edge="1" parent="1" source="Ux1uXaIulqPXLvxL6gqE-12" target="Ux1uXaIulqPXLvxL6gqE-14">
          <mxGeometry relative="1" as="geometry">
            <Array as="points">
              <mxPoint x="145" y="400" />
              <mxPoint x="490" y="400" />
            </Array>
          </mxGeometry>
        </mxCell>
        <mxCell id="Ux1uXaIulqPXLvxL6gqE-51" value="use" style="edgeLabel;html=1;align=center;verticalAlign=middle;resizable=0;points=[];" vertex="1" connectable="0" parent="Ux1uXaIulqPXLvxL6gqE-37">
          <mxGeometry x="-0.0592" y="2" relative="1" as="geometry">
            <mxPoint as="offset" />
          </mxGeometry>
        </mxCell>
        <mxCell id="Ux1uXaIulqPXLvxL6gqE-39" style="edgeStyle=orthogonalEdgeStyle;rounded=0;orthogonalLoop=1;jettySize=auto;html=1;exitX=0.466;exitY=0.118;exitDx=0;exitDy=0;exitPerimeter=0;entryX=0;entryY=0;entryDx=70;entryDy=23;entryPerimeter=0;" edge="1" parent="1" source="Ux1uXaIulqPXLvxL6gqE-14" target="Ux1uXaIulqPXLvxL6gqE-13">
          <mxGeometry relative="1" as="geometry">
            <Array as="points">
              <mxPoint x="461" y="443" />
            </Array>
          </mxGeometry>
        </mxCell>
        <mxCell id="Ux1uXaIulqPXLvxL6gqE-44" value="&lt;font face=&quot;Comic Sans MS&quot;&gt;create/use&lt;/font&gt;" style="edgeLabel;html=1;align=center;verticalAlign=middle;resizable=0;points=[];rotation=0;" vertex="1" connectable="0" parent="Ux1uXaIulqPXLvxL6gqE-39">
          <mxGeometry x="-0.3079" relative="1" as="geometry">
            <mxPoint x="-30" y="-3" as="offset" />
          </mxGeometry>
        </mxCell>
        <mxCell id="Ux1uXaIulqPXLvxL6gqE-40" value="" style="endArrow=none;html=1;edgeStyle=orthogonalEdgeStyle;rounded=0;" edge="1" parent="1">
          <mxGeometry relative="1" as="geometry">
            <mxPoint x="129.86" y="360" as="sourcePoint" />
            <mxPoint x="129.86" y="420" as="targetPoint" />
            <Array as="points">
              <mxPoint x="129.86" y="420" />
            </Array>
          </mxGeometry>
        </mxCell>
        <mxCell id="Ux1uXaIulqPXLvxL6gqE-43" value="" style="endArrow=none;html=1;edgeStyle=orthogonalEdgeStyle;rounded=0;entryX=0;entryY=0;entryDx=20;entryDy=0;entryPerimeter=0;" edge="1" parent="1">
          <mxGeometry relative="1" as="geometry">
            <mxPoint x="130" y="679.99" as="sourcePoint" />
            <mxPoint x="124" y="739.99" as="targetPoint" />
            <Array as="points">
              <mxPoint x="130" y="739.99" />
            </Array>
          </mxGeometry>
        </mxCell>
        <mxCell id="Ux1uXaIulqPXLvxL6gqE-59" style="edgeStyle=orthogonalEdgeStyle;rounded=0;orthogonalLoop=1;jettySize=auto;html=1;entryX=0;entryY=0;entryDx=70;entryDy=23;entryPerimeter=0;exitX=0.464;exitY=0.118;exitDx=0;exitDy=0;exitPerimeter=0;" edge="1" parent="1" source="Ux1uXaIulqPXLvxL6gqE-24" target="Ux1uXaIulqPXLvxL6gqE-23">
          <mxGeometry relative="1" as="geometry">
            <Array as="points">
              <mxPoint x="460" y="763" />
            </Array>
          </mxGeometry>
        </mxCell>
        <mxCell id="Ux1uXaIulqPXLvxL6gqE-61" value="create/use" style="edgeLabel;html=1;align=center;verticalAlign=middle;resizable=0;points=[];" vertex="1" connectable="0" parent="Ux1uXaIulqPXLvxL6gqE-59">
          <mxGeometry x="0.1738" y="-3" relative="1" as="geometry">
            <mxPoint as="offset" />
          </mxGeometry>
        </mxCell>
        <mxCell id="Ux1uXaIulqPXLvxL6gqE-65" value="" style="endArrow=block;dashed=1;endFill=0;endSize=12;html=1;rounded=0;entryX=0;entryY=0;entryDx=70;entryDy=32;entryPerimeter=0;exitX=0;exitY=0;exitDx=0;exitDy=32;exitPerimeter=0;" edge="1" parent="1" source="Ux1uXaIulqPXLvxL6gqE-11" target="Ux1uXaIulqPXLvxL6gqE-10">
          <mxGeometry width="160" relative="1" as="geometry">
            <mxPoint x="526" y="520" as="sourcePoint" />
            <mxPoint x="440" y="520" as="targetPoint" />
            <Array as="points" />
          </mxGeometry>
        </mxCell>
        <mxCell id="Ux1uXaIulqPXLvxL6gqE-66" value="&lt;font face=&quot;Comic Sans MS&quot;&gt;implement&lt;/font&gt;" style="edgeLabel;html=1;align=center;verticalAlign=middle;resizable=0;points=[];" vertex="1" connectable="0" parent="Ux1uXaIulqPXLvxL6gqE-65">
          <mxGeometry x="-0.2047" y="2" relative="1" as="geometry">
            <mxPoint as="offset" />
          </mxGeometry>
        </mxCell>
        <mxCell id="Ux1uXaIulqPXLvxL6gqE-67" style="edgeStyle=orthogonalEdgeStyle;rounded=0;orthogonalLoop=1;jettySize=auto;html=1;entryX=0.471;entryY=0.044;entryDx=0;entryDy=0;entryPerimeter=0;exitX=0.5;exitY=1;exitDx=0;exitDy=0;exitPerimeter=0;" edge="1" parent="1" source="Ux1uXaIulqPXLvxL6gqE-7" target="Ux1uXaIulqPXLvxL6gqE-8">
          <mxGeometry relative="1" as="geometry">
            <Array as="points">
              <mxPoint x="143" y="140" />
            </Array>
          </mxGeometry>
        </mxCell>
        <mxCell id="Ux1uXaIulqPXLvxL6gqE-70" value="use" style="edgeLabel;html=1;align=center;verticalAlign=middle;resizable=0;points=[];" vertex="1" connectable="0" parent="Ux1uXaIulqPXLvxL6gqE-67">
          <mxGeometry x="-0.107" y="-2" relative="1" as="geometry">
            <mxPoint as="offset" />
          </mxGeometry>
        </mxCell>
        <mxCell id="Ux1uXaIulqPXLvxL6gqE-68" style="edgeStyle=orthogonalEdgeStyle;rounded=0;orthogonalLoop=1;jettySize=auto;html=1;" edge="1" parent="1" source="Ux1uXaIulqPXLvxL6gqE-8">
          <mxGeometry relative="1" as="geometry">
            <mxPoint x="330" y="215" as="targetPoint" />
            <Array as="points">
              <mxPoint x="330" y="215" />
            </Array>
          </mxGeometry>
        </mxCell>
        <mxCell id="Ux1uXaIulqPXLvxL6gqE-69" value="use" style="edgeLabel;html=1;align=center;verticalAlign=middle;resizable=0;points=[];" vertex="1" connectable="0" parent="Ux1uXaIulqPXLvxL6gqE-68">
          <mxGeometry x="-0.0853" y="2" relative="1" as="geometry">
            <mxPoint as="offset" />
          </mxGeometry>
        </mxCell>
        <mxCell id="Ux1uXaIulqPXLvxL6gqE-71" value="" style="shape=providedRequiredInterface;html=1;verticalLabelPosition=bottom;sketch=0;direction=north;" vertex="1" parent="1">
          <mxGeometry x="120" y="300" width="20" height="20" as="geometry" />
        </mxCell>
        <mxCell id="Ux1uXaIulqPXLvxL6gqE-72" value="" style="endArrow=none;html=1;edgeStyle=orthogonalEdgeStyle;rounded=0;" edge="1" parent="1">
          <mxGeometry relative="1" as="geometry">
            <mxPoint x="130" y="320" as="sourcePoint" />
            <mxPoint x="130" y="360" as="targetPoint" />
            <Array as="points">
              <mxPoint x="129.78" y="360" />
            </Array>
          </mxGeometry>
        </mxCell>
        <mxCell id="Ux1uXaIulqPXLvxL6gqE-74" value="" style="endArrow=none;html=1;edgeStyle=orthogonalEdgeStyle;rounded=0;exitX=0.106;exitY=0.997;exitDx=0;exitDy=0;exitPerimeter=0;entryX=1;entryY=0.5;entryDx=0;entryDy=0;entryPerimeter=0;" edge="1" parent="1" source="Ux1uXaIulqPXLvxL6gqE-2" target="Ux1uXaIulqPXLvxL6gqE-71">
          <mxGeometry relative="1" as="geometry">
            <mxPoint x="150" y="330" as="sourcePoint" />
            <mxPoint x="150.22" y="350" as="targetPoint" />
            <Array as="points">
              <mxPoint x="130" y="300" />
            </Array>
          </mxGeometry>
        </mxCell>
        <mxCell id="Ux1uXaIulqPXLvxL6gqE-75" value="" style="shape=providedRequiredInterface;html=1;verticalLabelPosition=bottom;sketch=0;direction=north;" vertex="1" parent="1">
          <mxGeometry x="120" y="619.99" width="20" height="20" as="geometry" />
        </mxCell>
        <mxCell id="Ux1uXaIulqPXLvxL6gqE-76" value="" style="endArrow=none;html=1;edgeStyle=orthogonalEdgeStyle;rounded=0;" edge="1" parent="1">
          <mxGeometry relative="1" as="geometry">
            <mxPoint x="130" y="639.99" as="sourcePoint" />
            <mxPoint x="130" y="679.99" as="targetPoint" />
            <Array as="points">
              <mxPoint x="129.78" y="679.99" />
            </Array>
          </mxGeometry>
        </mxCell>
        <mxCell id="Ux1uXaIulqPXLvxL6gqE-77" value="" style="endArrow=none;html=1;edgeStyle=orthogonalEdgeStyle;rounded=0;exitX=0.106;exitY=0.997;exitDx=0;exitDy=0;exitPerimeter=0;entryX=1;entryY=0.5;entryDx=0;entryDy=0;entryPerimeter=0;" edge="1" parent="1" target="Ux1uXaIulqPXLvxL6gqE-75">
          <mxGeometry relative="1" as="geometry">
            <mxPoint x="130" y="598.99" as="sourcePoint" />
            <mxPoint x="150.22" y="669.99" as="targetPoint" />
            <Array as="points">
              <mxPoint x="130" y="598.99" />
              <mxPoint x="130" y="598.99" />
            </Array>
          </mxGeometry>
        </mxCell>
        <mxCell id="Ux1uXaIulqPXLvxL6gqE-78" value="" style="rounded=1;whiteSpace=wrap;html=1;absoluteArcSize=1;arcSize=14;strokeWidth=2;" vertex="1" parent="1">
          <mxGeometry x="120" y="270" width="20" height="20" as="geometry" />
        </mxCell>
        <mxCell id="Ux1uXaIulqPXLvxL6gqE-80" value="" style="rounded=1;whiteSpace=wrap;html=1;absoluteArcSize=1;arcSize=14;strokeWidth=2;" vertex="1" parent="1">
          <mxGeometry x="120" y="590" width="20" height="20" as="geometry" />
        </mxCell>
        <mxCell id="Ux1uXaIulqPXLvxL6gqE-81" value="" style="rounded=1;whiteSpace=wrap;html=1;absoluteArcSize=1;arcSize=14;strokeWidth=2;" vertex="1" parent="1">
          <mxGeometry x="120" y="670" width="20" height="20" as="geometry" />
        </mxCell>
        <mxCell id="Ux1uXaIulqPXLvxL6gqE-82" value="" style="rounded=1;whiteSpace=wrap;html=1;absoluteArcSize=1;arcSize=14;strokeWidth=2;" vertex="1" parent="1">
          <mxGeometry x="120" y="350" width="20" height="20" as="geometry" />
        </mxCell>
        <mxCell id="Ux1uXaIulqPXLvxL6gqE-88" value="&lt;font face=&quot;Comic Sans MS&quot; style=&quot;font-size: 18px;&quot;&gt;Backend&lt;/font&gt;" style="html=1;whiteSpace=wrap;fillColor=#CCFFCC;" vertex="1" parent="1">
          <mxGeometry x="40" y="-20" width="150" height="40" as="geometry" />
        </mxCell>
      </root>
    </mxGraphModel>
  </diagram>
</mxfile>
